<?xml version="1.0" encoding="UTF-8"?>
<svg version="1.1" xmlns="http://www.w3.org/2000/svg" width="450" height="450">
<path d="M0 0 C148.5 0 297 0 450 0 C450 148.5 450 297 450 450 C301.5 450 153 450 0 450 C0 301.5 0 153 0 0 Z " fill="#010101" transform="translate(0,0)"/>
<path d="M0 0 C13.18636424 -0.44179514 26.37094798 -0.77858205 39.5632267 -0.98443127 C45.69065747 -1.08327844 51.8129992 -1.2171039 57.9375 -1.43334961 C63.8578241 -1.64105839 69.77328385 -1.7536367 75.69697189 -1.80266762 C77.94696041 -1.83756225 80.19670544 -1.90572171 82.44459915 -2.00887108 C99.57255903 -2.76297707 99.57255903 -2.76297707 105.3102951 1.86240768 C109.51345102 6.38498827 112.70459629 11.41365935 115.71871948 16.78091717 C117.38380349 19.66471918 119.29904725 22.18109446 121.375 24.78125 C121.97989258 25.56991455 122.58478516 26.3585791 123.20800781 27.17114258 C123.79936523 27.93966553 124.39072266 28.70818848 125 29.5 C130.74561177 37.00417237 136.40208824 44.56691626 141.9921875 52.1875 C145.63153803 57.14798463 149.29995979 62.08463605 153 67 C159.13060637 75.1496439 165.17710603 83.36023079 171.21777344 91.57666016 C174.72162177 96.34093393 178.2312749 101.10093401 181.74072266 105.86108398 C184.71151682 109.89133107 187.67900229 113.92394483 190.640625 117.9609375 C195.88638476 125.10584155 201.13942542 132.23827508 206.5625 139.25 C207.34367188 140.26449219 208.12484375 141.27898437 208.9296875 142.32421875 C210.19529153 143.95995226 211.46932417 145.58926257 212.7578125 147.20703125 C216.058702 151.49097254 216.058702 151.49097254 215.77563477 153.94555664 C214.91596708 156.22258011 213.85937345 157.85944009 212.40234375 159.80859375 C211.5829834 160.91328003 211.5829834 160.91328003 210.74707031 162.0402832 C210.14991211 162.83136475 209.55275391 163.62244629 208.9375 164.4375 C208.31842773 165.26789795 207.69935547 166.0982959 207.06152344 166.95385742 C201.65786071 174.18189705 196.16987497 181.34626045 190.68334961 188.51147461 C187.03704044 193.28455925 183.45403415 198.08611979 180 203 C175.89413864 208.84120191 171.59101313 214.51929814 167.25 220.1875 C159.70868211 230.03561558 152.32774653 239.99239189 145 250 C137.73380152 259.92355106 130.41701614 269.79829592 122.9375 279.5625 C111.15262753 294.06066824 111.15262753 294.06066824 101.1082077 309.70973492 C99.44508771 312.58898568 98.18838072 314.63666162 94.91513348 315.6374321 C92.27625767 315.86318182 89.71686727 315.86588575 87.0690918 315.79467773 C85.5757003 315.79621101 85.5757003 315.79621101 84.05213928 315.79777527 C80.76673974 315.79290468 77.48413168 315.73848559 74.19921875 315.68359375 C71.91951516 315.67053575 69.63979191 315.66057254 67.36006165 315.65357971 C61.3639387 315.62687063 55.3690054 315.55812126 49.37335205 315.48065186 C43.25362238 315.40900555 37.13370019 315.37706509 31.01367188 315.34179688 C19.00859229 315.26675504 7.00439512 315.14730461 -5 315 C-4.04086559 313.55469787 -3.08085918 312.10997439 -2.1204834 310.66549683 C-1.58597313 309.86090467 -1.05146286 309.05631252 -0.50075531 308.22733879 C1.12167212 305.81942091 2.81884904 303.49300814 4.59375 301.1953125 C5.53927734 299.96458008 5.53927734 299.96458008 6.50390625 298.70898438 C7.49197266 297.42991211 7.49197266 297.42991211 8.5 296.125 C13.73786161 289.30034606 18.91955763 282.44266076 24 275.5 C28.94165371 268.75020007 33.97375459 262.07704921 39.0625 255.4375 C44.59328703 248.21842318 49.9876508 240.92025845 55.27978516 233.52490234 C59.42802368 227.74557899 63.71910644 222.08897629 68.06201172 216.45507812 C72.05020499 211.27102302 75.94780647 206.02662542 79.8125 200.75 C84.86236258 193.85783073 89.99688093 187.03674057 95.1875 180.25 C96.52369232 178.49628787 97.85963501 176.74238552 99.1953125 174.98828125 C101.05413781 172.54722418 102.9158314 170.10891462 104.79199219 167.68115234 C106.39345058 165.60827097 107.9795396 163.52451995 109.5625 161.4375 C110.03389404 160.83647461 110.50528809 160.23544922 110.9909668 159.61621094 C113.37828762 156.65469671 113.37828762 156.65469671 113.77587891 153.04541016 C112.91089752 150.76510365 111.85920271 149.23949606 110.33203125 147.33984375 C109.77596191 146.63883545 109.21989258 145.93782715 108.64697266 145.21557617 C108.04159668 144.46381104 107.4362207 143.7120459 106.8125 142.9375 C101.79607731 136.60363946 96.88843598 130.21385248 92.125 123.6875 C87.16007836 116.8979294 82.11333634 110.17850565 77 103.5 C71.34634038 96.11367991 65.78529611 88.66805268 60.2890625 81.1640625 C55.26968278 74.32771275 50.1292168 67.58781756 44.97412109 60.85351562 C39.86103987 54.16174112 34.85057748 47.40002542 29.87158203 40.6081543 C26.58879753 36.13664533 23.27106031 31.69859125 19.875 27.3125 C16.07167569 22.39908435 12.30203317 17.46218127 8.5625 12.5 C8.05380371 11.82880127 7.54510742 11.15760254 7.02099609 10.46606445 C6.54098145 9.82757568 6.0609668 9.18908691 5.56640625 8.53125 C5.14302979 7.96986328 4.71965332 7.40847656 4.28344727 6.83007812 C2.73435275 4.62121137 1.37940469 2.3177711 0 0 Z " fill="#FAFAFA" transform="translate(61,69)"/>
<path d="M0 0 C4.38715096 4.10227103 7.80852917 8.63487512 11.3125 13.5 C16.42488015 20.51744595 21.6027515 27.47679135 26.875 34.375 C27.54039795 35.24624512 28.2057959 36.11749023 28.89135742 37.01513672 C30.92633305 39.67770794 32.96287818 42.33907054 35 45 C43.33054221 55.88152164 51.61390911 66.78772916 59.71582031 77.84082031 C67.36485932 88.25405184 75.24500689 98.49261683 83.10546875 108.74658203 C96.994083 126.86788626 96.994083 126.86788626 103 135.25 C103.41556152 135.8287085 103.83112305 136.40741699 104.25927734 137.00366211 C107 140.87125957 107 140.87125957 107 142 C93.48313435 142.32493528 79.96720294 142.57340812 66.44722176 142.72537041 C60.16848576 142.79832254 53.89242846 142.89718942 47.61523438 143.05615234 C41.5525183 143.20871611 35.49237107 143.29206525 29.42788315 143.3282814 C27.11913478 143.35407396 24.81052124 143.40444863 22.50287247 143.48022079 C4.87338233 144.03585893 4.87338233 144.03585893 0.06515121 140.62911415 C-3.58269628 136.90878642 -5.74890326 132.65287905 -8 128 C-9.04502963 126.52101105 -10.12007343 125.06126002 -11.2578125 123.65234375 C-11.72968994 123.03866943 -12.20156738 122.42499512 -12.68774414 121.79272461 C-13.16203857 121.18050049 -13.63633301 120.56827637 -14.125 119.9375 C-15.23069793 118.50017627 -16.33615497 117.06266722 -17.44140625 115.625 C-18.0152002 114.87992187 -18.58899414 114.13484375 -19.18017578 113.3671875 C-27.47131891 102.58225005 -35.7061973 91.75288937 -43.875 80.875 C-44.3687915 80.21814209 -44.86258301 79.56128418 -45.37133789 78.88452148 C-51.03423939 71.32558173 -51.03423939 71.32558173 -50.79614258 69.06152344 C-49.89366462 66.72465626 -48.76504286 65.02005715 -47.26171875 63.015625 C-46.69517578 62.25378906 -46.12863281 61.49195313 -45.54492188 60.70703125 C-44.62549805 59.49080078 -44.62549805 59.49080078 -43.6875 58.25 C-43.05521484 57.40308594 -42.42292969 56.55617188 -41.77148438 55.68359375 C-39.8538072 53.11771476 -37.92779693 50.55828092 -36 48 C-34.964442 46.62009307 -33.92925477 45.23990778 -32.89453125 43.859375 C-31.44646656 41.92789478 -29.99771372 39.996962 -28.54614258 38.06811523 C-24.61777267 32.84393564 -20.74321731 27.58131475 -16.875 22.3125 C-11.35241505 14.79324142 -5.73415993 7.35927899 0 0 Z " fill="#FAFAF9" transform="translate(294,244)"/>
<path d="M0 0 C2.2652986 0.03737869 4.53076071 0.06581205 6.79627991 0.08575439 C12.71417365 0.16155279 18.62199493 0.35740316 24.53594971 0.57983398 C30.58833514 0.78572864 36.64237579 0.87604113 42.69726562 0.9765625 C54.54345083 1.19003622 66.38221127 1.53059586 78.22265625 1.953125 C76.84780218 4.76360432 75.38905374 7.24369747 73.52734375 9.76171875 C72.98456787 10.497854 72.44179199 11.23398926 71.88256836 11.99243164 C71.29354736 12.78383545 70.70452637 13.57523926 70.09765625 14.390625 C69.17255249 15.64057251 69.17255249 15.64057251 68.22875977 16.91577148 C62.93108026 24.05173316 57.53466811 31.11082386 52.12988281 38.16577148 C47.21439944 44.6010956 42.44526065 51.12900575 37.72973633 57.71166992 C33.90147871 63.04526822 29.9540667 68.26051929 25.92578125 73.4453125 C22.59795397 77.74228766 19.35195468 82.10037517 16.09765625 86.453125 C10.04733729 94.5413323 3.95484143 102.59607665 -2.19091797 110.61206055 C-5.05761955 114.35554774 -7.90836026 118.10111442 -10.64453125 121.94140625 C-11.05654785 122.51439453 -11.46856445 123.08738281 -11.89306641 123.67773438 C-12.93272373 125.13316512 -13.95737267 126.59928648 -14.98046875 128.06640625 C-15.5734375 128.68902344 -16.16640625 129.31164062 -16.77734375 129.953125 C-18.09734375 129.953125 -19.41734375 129.953125 -20.77734375 129.953125 C-22.39772629 128.08466064 -23.68753201 126.32480823 -25.02734375 124.265625 C-25.90913775 122.97148251 -26.79481581 121.67998113 -27.68359375 120.390625 C-28.17214844 119.68035156 -28.66070312 118.97007812 -29.1640625 118.23828125 C-32.16364579 113.98947683 -35.35670188 109.88738361 -38.52734375 105.765625 C-45.01315269 97.30110769 -51.40255841 88.77383783 -57.68359375 80.15625 C-59.57561751 77.56459583 -61.49961811 75.01198353 -63.49609375 72.5 C-64.24890625 71.53578125 -65.00171875 70.5715625 -65.77734375 69.578125 C-66.41671875 68.78664063 -67.05609375 67.99515625 -67.71484375 67.1796875 C-68.77734375 64.953125 -68.77734375 64.953125 -68.35546875 62.703125 C-66.04573275 58.67823851 -63.3204067 55.02896169 -60.52734375 51.328125 C-59.24982528 49.61601578 -57.97248643 47.90377251 -56.6953125 46.19140625 C-56.04224121 45.3195166 -55.38916992 44.44762695 -54.71630859 43.54931641 C-52.34373354 40.37253938 -49.99387754 37.1796918 -47.65378475 33.97893143 C-46.50857384 32.42375108 -45.35424264 30.87520846 -44.18731785 29.33625412 C-41.0971932 25.24096558 -38.24183581 21.13810722 -35.64231873 16.71295166 C-25.9918156 1.00670188 -17.77622777 -0.86945809 0 0 Z " fill="#FAFAFA" transform="translate(312.77734375,68.046875)"/>
</svg>
